<?xml version="1.0" encoding="UTF-8"?>
<svg width="123px" height="155px" viewBox="0 0 123 155" version="1.1" xmlns="http://www.w3.org/2000/svg" xmlns:xlink="http://www.w3.org/1999/xlink">
    <title>House of Commons Logo</title>
    <g stroke="none" stroke-width="1" fill="none" fill-rule="evenodd">
        <g id="House-of-Commons" fill="#FFFFFF" fill-rule="nonzero">
            <path d="M60.92,0 C60.92,0 0,16.49 0,82.4 C0,148.33 60.92,155 60.92,155 C60.92,155 122.23,148.33 122.23,82.4 C122.23,16.49 60.92,0 60.92,0 Z M60.92,151.9 C60.92,151.9 3.1,145.39 3.1,82.4 C3.1,19.42 60.92,3.1 60.92,3.1 C60.92,3.1 119.13,19.42 119.13,82.4 C119.13,145.39 60.92,151.9 60.92,151.9 Z" id="Shape"></path>
            <path d="M60.92,6.2 C60.92,6.2 6.2,21.65 6.2,82.4 C6.2,143.15 60.92,149.8 60.92,149.8 C60.92,149.8 116.03,143.15 116.03,82.4 C116.03,21.65 60.92,6.2 60.92,6.2 Z M96.97,75.27 L84.42,75.27 L84.42,63.01 L79.32,63.01 L79.32,75.27 L73.84,75.27 L68.12,55.25 L60.92,55.25 L55.2,75.27 L49.72,75.27 L49.72,63.01 L44.62,63.01 L44.62,75.27 L24.92,75.27 L24.92,80.37 L44.62,80.37 L44.62,92.9 L49.72,92.9 L49.72,80.37 L55.2,80.37 L60.92,100.1 L68.12,100.1 L73.84,80.37 L79.32,80.37 L79.32,92.9 L84.42,92.9 L84.42,80.37 L96.97,80.37 L96.97,75.27 Z" id="Shape"></path>
            <polygon id="Path" points="64.33 61.98 60.92 74.15 57.79 61.98"></polygon>
            <polygon id="Path" points="57.79 93.37 60.92 81.49 64.33 93.37"></polygon>
        </g>
    </g>
</svg>
